<svg width="18" height="18" viewBox="0 0 18 18" fill="none" xmlns="http://www.w3.org/2000/svg">
<path d="M17.5248 1.05879C17.1482 0.743942 16.6307 0.662923 16.1771 0.847801L0.819626 7.09895C0.144068 7.3793 -0.178147 8.15874 0.0999133 8.83981C0.24373 9.19206 0.530004 9.46544 0.88659 9.59114L4.19966 10.7524L5.99515 16.7377C5.99876 16.7499 6.00985 16.7573 6.01451 16.7691C6.03308 16.8168 6.06023 16.8607 6.0945 16.8986C6.10727 16.9138 6.12118 16.9281 6.13604 16.9413C6.18077 16.9788 6.23272 17.0065 6.28859 17.0226C6.29712 17.0251 6.30282 17.0328 6.31151 17.0348L6.31653 17.0346L6.31904 17.0356C6.34766 17.0421 6.37685 17.0452 6.4061 17.0449C6.44434 17.0435 6.48227 17.0369 6.51868 17.0251C6.52574 17.0232 6.53286 17.0237 6.53976 17.0214C6.60197 16.9993 6.65816 16.963 6.70393 16.9152C6.70927 16.9098 6.71738 16.9088 6.7225 16.9031L9.30566 14.0295L13.0741 16.9715C13.3031 17.152 13.5854 17.2501 13.876 17.25C14.5046 17.2499 15.0473 16.8059 15.1768 16.1858L17.9734 2.34328C18.0703 1.86445 17.8979 1.37073 17.5248 1.05879ZM6.93266 11.8875L6.32647 14.8576L5.0623 10.6422L11.3322 7.3504L7.04901 11.6689C6.98979 11.7287 6.94935 11.8047 6.93266 11.8875ZM14.3373 16.0119C14.3044 16.171 14.1918 16.3015 14.0401 16.3563C13.8919 16.4137 13.7244 16.3881 13.5998 16.2887L9.51665 13.1011C9.33988 12.9631 9.08756 12.9856 8.93741 13.1526L7.14114 15.1508L7.74628 12.1888L13.9079 5.97565C14.0753 5.80712 14.0756 5.53368 13.9084 5.36489C13.7762 5.23129 13.5733 5.19974 13.4073 5.28699L4.52439 9.95082L1.167 8.77419C0.984003 8.71348 0.859543 8.54221 0.857293 8.348C0.848452 8.15241 0.963286 7.9726 1.14357 7.89986L16.4986 1.64955C16.659 1.58093 16.844 1.60968 16.9765 1.72382C17.1084 1.83111 17.1689 2.00417 17.133 2.17112L14.3373 16.0119Z" fill="#BDAA8A"/>
</svg>
