<svg width="41" height="21" viewBox="0 0 41 21" fill="none" xmlns="http://www.w3.org/2000/svg">
<path d="M8.41182 7.66895C8.84215 11.3442 15.3261 18.968 23.7059 19.8228C32.1089 20.6776 39 16.2115 39 7.66895H8.41182Z" stroke="white" stroke-miterlimit="10" stroke-linecap="round" stroke-linejoin="round"/>
<path d="M34.8599 10.8086C34.6321 10.8086 34.4474 10.6226 34.4474 10.3931C34.4474 10.1636 34.6321 9.97754 34.8599 9.97754C35.0878 9.97754 35.2725 10.1636 35.2725 10.3931C35.2725 10.6226 35.0878 10.8086 34.8599 10.8086Z" fill="white" stroke="white" stroke-miterlimit="10"/>
<path d="M8.41211 1.06272C8.41211 1.06272 6.0046 0.481194 5.77199 2.85963C5.52193 5.38344 8.41211 7.73862 8.41211 7.73862C8.41211 7.73862 7.70846 5.53464 8.41211 1.06272Z" stroke="white" stroke-miterlimit="10" stroke-linecap="round" stroke-linejoin="round"/>
<path d="M1.5449 7.45029C1.5449 7.45029 1.17542 5.00126 3.56507 4.97683C6.10108 4.94769 8.1954 8.03213 8.1954 8.03213C8.1954 8.03213 6.06113 7.13908 1.5449 7.45029Z" stroke="white" stroke-miterlimit="10" stroke-linecap="round" stroke-linejoin="round"/>
<path d="M29.2482 7.66895C29.0388 8.40167 28.9225 9.17509 28.9225 9.97178C28.9225 13.3795 30.9753 16.3046 33.8945 17.5549" stroke="white" stroke-miterlimit="10" stroke-linecap="round" stroke-linejoin="round"/>
<path d="M27.4161 19.8754C27.4219 19.7358 27.4277 19.6486 27.4277 19.509C27.4277 15.1883 24.0316 11.6875 19.8447 11.6875C17.2278 11.6875 14.9191 13.0541 13.5584 15.1359" stroke="white" stroke-miterlimit="10" stroke-linecap="round" stroke-linejoin="round"/>
<path d="M24.8802 19.9274C24.9267 17.0605 22.6239 14.7344 19.8442 14.7344C18.1229 14.7344 16.6574 15.5718 15.7502 16.9267" stroke="white" stroke-miterlimit="10" stroke-linecap="round" stroke-linejoin="round"/>
<path d="M22.2637 7.66895C22.1125 7.93063 21.9787 8.20395 21.8566 8.48308C21.3914 9.56471 21.1878 10.7045 21.2111 11.8152" stroke="white" stroke-miterlimit="10" stroke-linecap="round" stroke-linejoin="round"/>
<path d="M25.5957 7.73828C25.0898 8.20932 24.6711 8.79665 24.3803 9.47704C23.886 10.6226 23.8337 11.8555 24.1361 12.9778" stroke="white" stroke-miterlimit="10" stroke-linecap="round" stroke-linejoin="round"/>
</svg>
