<svg width="111" height="24" viewBox="0 0 111 24" fill="none" xmlns="http://www.w3.org/2000/svg">
<path d="M8.41182 7.66895C8.84215 11.3442 15.3261 18.968 23.7059 19.8228C32.1089 20.6776 39 16.2115 39 7.66895H8.41182Z" stroke="white" stroke-miterlimit="10" stroke-linecap="round" stroke-linejoin="round"/>
<path d="M34.8597 10.8086C34.6318 10.8086 34.4471 10.6226 34.4471 10.3931C34.4471 10.1636 34.6318 9.97754 34.8597 9.97754C35.0875 9.97754 35.2722 10.1636 35.2722 10.3931C35.2722 10.6226 35.0875 10.8086 34.8597 10.8086Z" fill="white" stroke="white" stroke-miterlimit="10"/>
<path d="M8.41211 1.06272C8.41211 1.06272 6.0046 0.481194 5.77199 2.85963C5.52193 5.38344 8.41211 7.73862 8.41211 7.73862C8.41211 7.73862 7.70846 5.53464 8.41211 1.06272Z" stroke="white" stroke-miterlimit="10" stroke-linecap="round" stroke-linejoin="round"/>
<path d="M1.5449 7.45029C1.5449 7.45029 1.17542 5.00126 3.56507 4.97683C6.10108 4.94769 8.1954 8.03213 8.1954 8.03213C8.1954 8.03213 6.06113 7.13908 1.5449 7.45029Z" stroke="white" stroke-miterlimit="10" stroke-linecap="round" stroke-linejoin="round"/>
<path d="M29.2479 7.66895C29.0386 8.40167 28.9223 9.17509 28.9223 9.97178C28.9223 13.3795 30.975 16.3046 33.8943 17.5549" stroke="white" stroke-miterlimit="10" stroke-linecap="round" stroke-linejoin="round"/>
<path d="M27.4163 19.8754C27.4222 19.7358 27.428 19.6486 27.428 19.509C27.428 15.1883 24.0319 11.6875 19.8449 11.6875C17.228 11.6875 14.9194 13.0541 13.5586 15.1359" stroke="white" stroke-miterlimit="10" stroke-linecap="round" stroke-linejoin="round"/>
<path d="M24.8802 19.9274C24.9267 17.0605 22.6239 14.7344 19.8442 14.7344C18.1229 14.7344 16.6574 15.5718 15.7502 16.9267" stroke="white" stroke-miterlimit="10" stroke-linecap="round" stroke-linejoin="round"/>
<path d="M22.2637 7.66895C22.1125 7.93063 21.9787 8.20395 21.8566 8.48308C21.3914 9.56471 21.1878 10.7045 21.2111 11.8152" stroke="white" stroke-miterlimit="10" stroke-linecap="round" stroke-linejoin="round"/>
<path d="M25.5957 7.73828C25.0898 8.20932 24.6711 8.79665 24.3803 9.47704C23.886 10.6226 23.8337 11.8555 24.1361 12.9778" stroke="white" stroke-miterlimit="10" stroke-linecap="round" stroke-linejoin="round"/>
<path d="M50.36 19V7.64H51.8V12.552H53.32L57.064 7.64H58.728L54.504 13.144L59.016 19H57.256L53.352 13.864H51.8V19H50.36ZM59.9019 16.584C59.9019 16.0507 60.0512 15.592 60.3499 15.208C60.6592 14.8133 61.0805 14.5093 61.6139 14.296C62.1472 14.0827 62.7659 13.976 63.4699 13.976C63.8432 13.976 64.2379 14.008 64.6539 14.072C65.0699 14.1253 65.4379 14.2107 65.7579 14.328V13.72C65.7579 13.08 65.5659 12.5787 65.1819 12.216C64.7979 11.8427 64.2539 11.656 63.5499 11.656C63.0912 11.656 62.6485 11.7413 62.2219 11.912C61.8059 12.072 61.3632 12.3067 60.8939 12.616L60.3819 11.624C60.9259 11.2507 61.4699 10.9733 62.0139 10.792C62.5579 10.6 63.1232 10.504 63.7099 10.504C64.7765 10.504 65.6192 10.8027 66.2379 11.4C66.8565 11.9867 67.1659 12.808 67.1659 13.864V17.4C67.1659 17.5707 67.1979 17.6987 67.2619 17.784C67.3365 17.8587 67.4539 17.9013 67.6139 17.912V19C67.4752 19.0213 67.3525 19.0373 67.2459 19.048C67.1499 19.0587 67.0699 19.064 67.0059 19.064C66.6752 19.064 66.4245 18.9733 66.2539 18.792C66.0939 18.6107 66.0032 18.4187 65.9819 18.216L65.9499 17.688C65.5872 18.1573 65.1125 18.52 64.5259 18.776C63.9392 19.032 63.3579 19.16 62.7819 19.16C62.2272 19.16 61.7312 19.048 61.2939 18.824C60.8565 18.5893 60.5152 18.28 60.2699 17.896C60.0245 17.5013 59.9019 17.064 59.9019 16.584ZM65.3419 17.176C65.4699 17.0267 65.5712 16.8773 65.6459 16.728C65.7205 16.568 65.7579 16.4347 65.7579 16.328V15.288C65.4272 15.16 65.0805 15.064 64.7179 15C64.3552 14.9253 63.9979 14.888 63.6459 14.888C62.9312 14.888 62.3499 15.032 61.9019 15.32C61.4645 15.5973 61.2459 15.9813 61.2459 16.472C61.2459 16.7387 61.3152 17 61.4539 17.256C61.6032 17.5013 61.8165 17.704 62.0939 17.864C62.3819 18.024 62.7339 18.104 63.1499 18.104C63.5872 18.104 64.0032 18.0187 64.3979 17.848C64.7925 17.6667 65.1072 17.4427 65.3419 17.176ZM71.3555 19V11.896H68.4755V10.648H75.6435V11.896H72.7635V19H71.3555ZM76.4019 16.584C76.4019 16.0507 76.5512 15.592 76.8499 15.208C77.1592 14.8133 77.5805 14.5093 78.1139 14.296C78.6472 14.0827 79.2659 13.976 79.9699 13.976C80.3432 13.976 80.7379 14.008 81.1539 14.072C81.5699 14.1253 81.9379 14.2107 82.2579 14.328V13.72C82.2579 13.08 82.0659 12.5787 81.6819 12.216C81.2979 11.8427 80.7539 11.656 80.0499 11.656C79.5912 11.656 79.1485 11.7413 78.7219 11.912C78.3059 12.072 77.8632 12.3067 77.3939 12.616L76.8819 11.624C77.4259 11.2507 77.9699 10.9733 78.5139 10.792C79.0579 10.6 79.6232 10.504 80.2099 10.504C81.2765 10.504 82.1192 10.8027 82.7379 11.4C83.3565 11.9867 83.6659 12.808 83.6659 13.864V17.4C83.6659 17.5707 83.6979 17.6987 83.7619 17.784C83.8365 17.8587 83.9539 17.9013 84.1139 17.912V19C83.9752 19.0213 83.8525 19.0373 83.7459 19.048C83.6499 19.0587 83.5699 19.064 83.5059 19.064C83.1752 19.064 82.9245 18.9733 82.7539 18.792C82.5939 18.6107 82.5032 18.4187 82.4819 18.216L82.4499 17.688C82.0872 18.1573 81.6125 18.52 81.0259 18.776C80.4392 19.032 79.8579 19.16 79.2819 19.16C78.7272 19.16 78.2312 19.048 77.7939 18.824C77.3565 18.5893 77.0152 18.28 76.7699 17.896C76.5245 17.5013 76.4019 17.064 76.4019 16.584ZM81.8419 17.176C81.9699 17.0267 82.0712 16.8773 82.1459 16.728C82.2205 16.568 82.2579 16.4347 82.2579 16.328V15.288C81.9272 15.16 81.5805 15.064 81.2179 15C80.8552 14.9253 80.4979 14.888 80.1459 14.888C79.4312 14.888 78.8499 15.032 78.4019 15.32C77.9645 15.5973 77.7459 15.9813 77.7459 16.472C77.7459 16.7387 77.8152 17 77.9539 17.256C78.1032 17.5013 78.3165 17.704 78.5939 17.864C78.8819 18.024 79.2339 18.104 79.6499 18.104C80.0872 18.104 80.5032 18.0187 80.8979 17.848C81.2925 17.6667 81.6072 17.4427 81.8419 17.176ZM85.1813 19.064V17.8C85.4586 17.8 85.7039 17.7307 85.9173 17.592C86.1413 17.4427 86.3386 17.1973 86.5093 16.856C86.6799 16.504 86.8133 16.024 86.9093 15.416C87.0159 14.7973 87.0853 14.0133 87.1173 13.064L87.2133 10.648H92.8933V19H91.4853V11.896H88.4613L88.4293 13.192C88.3866 14.3333 88.2906 15.2827 88.1413 16.04C87.9919 16.7973 87.7839 17.3947 87.5173 17.832C87.2506 18.2693 86.9199 18.584 86.5253 18.776C86.1413 18.968 85.6933 19.064 85.1813 19.064ZM98.8153 19.16C98.1859 19.16 97.6153 19.048 97.1033 18.824C96.5913 18.5893 96.1486 18.2747 95.7753 17.88C95.4019 17.4747 95.1139 17.0107 94.9113 16.488C94.7086 15.9653 94.6073 15.416 94.6073 14.84C94.6073 14.2533 94.7086 13.6987 94.9113 13.176C95.1139 12.6533 95.4019 12.1947 95.7753 11.8C96.1486 11.3947 96.5913 11.08 97.1033 10.856C97.6259 10.6213 98.1966 10.504 98.8153 10.504C99.4446 10.504 100.015 10.6213 100.527 10.856C101.039 11.08 101.482 11.3947 101.855 11.8C102.239 12.1947 102.533 12.6533 102.735 13.176C102.938 13.6987 103.039 14.2533 103.039 14.84C103.039 15.416 102.938 15.9653 102.735 16.488C102.533 17.0107 102.245 17.4747 101.871 17.88C101.498 18.2747 101.05 18.5893 100.527 18.824C100.015 19.048 99.4446 19.16 98.8153 19.16ZM96.0473 14.856C96.0473 15.432 96.1699 15.9547 96.4153 16.424C96.6713 16.8933 97.0073 17.2667 97.4233 17.544C97.8393 17.8107 98.3033 17.944 98.8153 17.944C99.3273 17.944 99.7913 17.8053 100.207 17.528C100.634 17.2507 100.97 16.8773 101.215 16.408C101.471 15.928 101.599 15.4 101.599 14.824C101.599 14.248 101.471 13.7253 101.215 13.256C100.97 12.7867 100.634 12.4133 100.207 12.136C99.7913 11.8587 99.3273 11.72 98.8153 11.72C98.3033 11.72 97.8393 11.864 97.4233 12.152C97.0073 12.4293 96.6713 12.8027 96.4153 13.272C96.1699 13.7413 96.0473 14.2693 96.0473 14.856ZM104.729 19V10.648H109.881V11.896H106.137V19H104.729Z" fill="white"/>
</svg>
