<svg width="24" height="14" viewBox="0 0 24 14" fill="none" xmlns="http://www.w3.org/2000/svg">
<path d="M0.5 1.5H4.5C4.5 1.5 6.81 7.5 9 7.5C9.41 7.5 9.5 6.75 9.5 4.5C9.5 2.25 8.91 1.5 8.5 1.5C8.5 1.09 9.28 0.5 11.5 0.5C13.72 0.5 13.5 0.56 13.5 1.5V5.5C13.5 6.66 13.88 7.5 14.5 7.5C15.12 7.5 18.72 3.06 19 1.5H23.5C23.5 2.03 19.5 7.56 19.5 8C19.5 8.44 23.5 12.5 23.5 13C23.5 13.5 22.63 13.5 21.5 13.5H19C18.41 13.5 15.84 10.5 14.5 10.5C13.16 10.5 14.22 13.5 13 13.5H11C7.28 13.5 1 4.41 0.5 1.5Z" stroke="#BDAA8A" stroke-linecap="round" stroke-linejoin="round"/>
</svg>
